<mxfile host="app.diagrams.net" modified="2021-07-14T06:44:18.745Z" agent="5.0 (X11)" etag="L3cBrDZmgnEqqqkp6B1o" version="14.7.6" type="github">
  <diagram id="-sJl1vnFAzSeyiDIy48c" name="Page-1">
    <mxGraphModel dx="2287" dy="991" grid="1" gridSize="10" guides="1" tooltips="1" connect="1" arrows="1" fold="1" page="1" pageScale="1" pageWidth="850" pageHeight="1100" math="0" shadow="0">
      <root>
        <mxCell id="0" />
        <mxCell id="1" parent="0" />
        <mxCell id="oXIK4gXNMIEvVELnEEeO-1" value="Actor" style="shape=umlActor;verticalLabelPosition=bottom;verticalAlign=top;html=1;outlineConnect=0;" vertex="1" parent="1">
          <mxGeometry x="40" y="40" width="30" height="60" as="geometry" />
        </mxCell>
        <mxCell id="oXIK4gXNMIEvVELnEEeO-2" value=":Object" style="shape=umlLifeline;perimeter=lifelinePerimeter;whiteSpace=wrap;html=1;container=1;collapsible=0;recursiveResize=0;outlineConnect=0;" vertex="1" parent="1">
          <mxGeometry x="120" y="40" width="100" height="300" as="geometry" />
        </mxCell>
      </root>
    </mxGraphModel>
  </diagram>
</mxfile>
